<?xml version="1.0" encoding="utf-8"?>
<!-- Generator: Adobe Illustrator 18.1.1, SVG Export Plug-In . SVG Version: 6.00 Build 0)  -->
<svg version="1.1" id="babies-crying" xmlns="http://www.w3.org/2000/svg" xmlns:xlink="http://www.w3.org/1999/xlink" x="0px" y="0px"
	 viewBox="-0.5 90.1 613 611.5" enable-background="new -0.5 90.1 613 611.5" xml:space="preserve">
<path fill="none" d="M0,391.1v-301h612v301c-5.7-9.1-12.2-19.4-24.1-18.2c-16,1.7-32,6.2-48.1,9.3c-0.5,1.4-0.7,2.9-1.2,4.3
	c11.7,11.5,22.5,24.1,35.4,33.7c5.3,3.8,16.3,2.4,23.2-0.2c5.7-2.2,9.6-9.6,14.3-14.8v296.4h-612V405.2c7.4,11.5,16,22.2,31.3,17.7
	c19.6-6,28.2-24.4,43.5-39.4c-13.4-3.3-23.4-6-33.2-8.4C18.4,369.8,12.7,372.2,0,391.1z M459.5,421.7c2.9,1,5,1.7,7.4,2.4
	c21,5.5,31.6,20.3,28.4,40.2c-3.1,18.2-18.9,29.4-39.9,27c-7.2-0.7-9.6,2.2-12.7,7.4c-29.9,54.5-76,83.9-138.4,84.2
	c-62.9,0-109.3-29.4-139.1-84.6c-3.1-5.7-6.2-7.6-12.9-6.9c-20.3,2.2-36.3-9.3-39.7-27.7c-3.3-17.9,7.9-33.5,28-39.7
	c3.8-1.2,8.6-6,9.1-9.8c6.2-47.1,29.9-83,68.6-110c9.1-6.2,17.9-13.6,24.9-22c11.7-13.9,16.5-30.4,7.6-47.6
	c-9.1-17.7-25.8-24.4-44.2-25.8c-4.1-0.2-11.2,5.7-12,9.8c-1,4.1,3.3,10.8,7.2,13.9c3.6,3.1,9.8,2.9,14.6,4.8
	c13.6,5.5,17.2,14.6,8.4,26.1c-6.2,7.9-14.6,14.8-22.9,20.6c-38.7,27-63.4,63.1-74.8,108.5c-1.2,4.5-5,9.6-9.3,12.2
	c-22.7,13.6-34.9,38-30.8,62.4c4.5,26.5,23.9,45.4,50.7,50.7c5,1,10.8,4.8,13.6,8.8c73.6,110,232.6,110,305.3,0
	c3.8-5.7,7.6-8.6,14.8-9.6c25.1-3.6,45.4-23.7,49.2-47.3c4.5-27.5-6.7-51.2-29.9-65c-4.5-2.9-8.8-8.8-10.3-14.1
	c-10.5-40.9-31.1-75.5-65.7-99.4c-21-14.6-45.7-23.7-68.6-34.9c-14.6-7.2-30.1-12.7-44.2-20.6c-11.5-6.5-11.5-17-1.4-25.3
	c4.5-3.8,11.2-5.3,14.8-9.6c3.3-3.8,6.7-11,5-15.1c-1.4-4.1-9.1-8.6-13.6-8.1c-21.3,2.2-41.4,27.7-39.2,48.8
	c1.7,17,12.4,28.4,26.8,35.6c16.3,8.1,33.5,14.6,50.7,21c32.8,12,61.9,28.9,83.4,57.4C447,364.6,456.4,392.1,459.5,421.7
	L459.5,421.7z M294.8,388.5c-36.8,1.2-72.9,20.8-92.5,64.5c-5.3,12-6.7,27.3-5.5,40.4c1.9,21.5,21.5,32.8,41.8,25.8
	c8.6-2.9,16.7-7.2,25.1-11.2c26.8-13.4,53.3-13.6,80.3-0.5c8.8,4.3,17.9,8.8,27.3,11.7c16.7,5.3,32-1.2,37.8-17.7
	c3.3-9.3,4.3-20.6,2.6-30.1C402.6,423.1,357.9,388.7,294.8,388.5L294.8,388.5z M485.1,299.3c20.6-4.5,38-7.6,52.6-18.2
	c8.8-6.5,9.8-17.2,6.2-27.3c-3.3-9.8-11-15.5-21.3-16.5c-10.8-1-20.8,2.6-24.6,12.9C492.5,265.1,489.6,280.9,485.1,299.3
	L485.1,299.3z M122.9,300.3c1.2-1.2,2.4-2.4,3.3-3.6c-3.8-15.5-6.7-31.3-12.2-46.4c-3.6-10-13.6-14.1-24.4-12.9
	c-10.8,1-18.6,7.2-21.8,17.5c-3.1,10-1.9,21.8,7.7,26.5C90.4,289.3,106.9,294,122.9,300.3z M386.8,387c5-5.3,10.5-8.8,12.7-13.9
	c3.1-7.2-1-13.1-8.4-16l-48.8-19.4c-7.6-2.9-14.6-1-16.7,6.2c-1.7,4.8-0.2,14.8,3.1,16.5C346.9,370.1,366,378,386.8,387L386.8,387z
	 M220.7,387c20.8-9.1,40.2-17.2,58.8-26.5c3.1-1.4,4.8-12,2.6-15.3c-2.6-4.1-11-8.4-15.1-6.9c-17.7,5.5-35.1,12.4-51.9,20.6
	c-3.8,1.9-6.9,10.5-6.2,15.5C209.2,378.4,215.6,381.8,220.7,387z"/>
<path fill="#FFFFFF" d="M0,391.1c12.7-19.1,18.4-21.3,41.6-16c9.8,2.4,19.8,5,33.2,8.4c-15.3,15.1-24.1,33.5-43.5,39.4
	c-15.1,4.5-23.9-6.2-31.3-17.7L0,391.1L0,391.1z M612,405.4c-4.8,5-8.6,12.7-14.3,14.8c-6.9,2.6-18.2,4.1-23.2,0.2
	c-13.1-9.6-23.9-22.2-35.4-33.7c0.5-1.4,0.7-2.9,1.2-4.3c16-3.3,31.8-7.9,48.1-9.3c12-1.2,18.2,9.3,24.1,18.2
	C612,395.9,612,400.7,612,405.4z M459.5,421.7c-3.3-29.6-12.7-57.1-30.8-81.3C407.1,312,378,295.2,345.2,283
	c-17.2-6.2-34.2-12.9-50.7-21c-14.3-7.2-25.1-18.6-26.8-35.6c-2.2-21,17.9-46.4,39.2-48.8c4.5-0.5,12,4.1,13.6,8.1
	c1.4,3.8-1.7,11-5,15.1c-3.8,4.3-10.3,5.7-14.8,9.6c-10.3,8.4-10,18.9,1.4,25.3c14.1,7.9,29.6,13.4,44.2,20.6
	c23.2,11.2,47.8,20.6,68.6,34.9c34.4,23.9,55.2,58.6,65.7,99.4c1.4,5.3,5.5,11.5,10.3,14.1c23.2,13.9,34.4,37.5,29.9,65
	c-3.8,23.4-24.4,43.5-49.2,47.3c-7.2,1-11,3.8-14.8,9.6c-72.7,110-231.9,110-305.3,0c-2.9-4.3-8.6-7.9-13.6-8.8
	c-26.8-5.3-46.1-23.9-50.7-50.7c-4.3-24.6,8.1-48.8,30.8-62.4c4.1-2.4,8.1-7.4,9.3-12.2c11.5-45.7,36.3-81.8,74.8-108.5
	c8.4-5.7,16.7-12.7,22.9-20.6c8.8-11.5,5.3-20.8-8.4-26.1c-4.8-1.9-11-1.7-14.6-4.8c-3.8-3.3-8.1-9.8-7.2-13.9
	c1-4.1,8.1-10.3,12-9.8c18.4,1.4,35.4,8.1,44.2,25.8c8.8,17.2,4.1,33.7-7.6,47.6c-7.2,8.4-15.8,15.8-24.9,22
	c-38.7,27-62.2,62.9-68.6,110c-0.5,3.6-5.3,8.6-9.1,9.8c-19.8,6.2-31.3,21.8-28,39.7c3.6,18.4,19.4,29.9,39.7,27.7
	c6.7-0.7,9.8,1,12.9,6.9c29.9,55.2,76.3,84.6,139.1,84.6c62.4,0,108.5-29.4,138.4-84.2c2.9-5.3,5.3-8.4,12.7-7.4
	c21,2.4,36.8-8.8,39.9-27c3.3-19.8-7.2-34.7-28.4-40.2C464.7,423.4,462.3,422.7,459.5,421.7z"/>
<path fill="#FFFFFF" d="M294.8,388.5c63.1,0.5,107.8,34.7,116.9,83.2c1.9,9.6,0.7,20.8-2.6,30.1c-5.7,16.5-21,23-37.8,17.7
	c-9.3-3.1-18.4-7.4-27.3-11.7c-27-13.1-53.5-12.9-80.3,0.5c-8.1,4.1-16.3,8.4-25.1,11.2c-20.3,6.7-39.9-4.5-41.8-25.8
	c-1.2-13.4,0.2-28.4,5.5-40.4C221.9,409.3,257.9,389.7,294.8,388.5L294.8,388.5z M485.1,299.3c4.5-18.2,7.4-34.2,12.9-49
	c3.6-10,13.9-13.9,24.6-12.9c10.3,1,17.9,6.7,21.3,16.5c3.6,10,2.4,20.6-6.2,27.3C523.1,291.6,505.6,294.5,485.1,299.3L485.1,299.3z
	 M122.9,300.3c-16-6-32.5-10.8-47.6-18.6c-9.6-5-10.5-16.5-7.7-26.5c3.1-10.3,11-16.5,21.8-17.5c10.8-1,20.8,2.9,24.4,12.9
	c5.5,14.8,8.4,30.8,12.2,46.4C125,297.9,124.1,299.1,122.9,300.3z M386.8,387c-21-9.3-40.2-17-58.1-26.5c-3.1-1.7-4.5-11.5-3.1-16.5
	c2.2-7.2,9.3-9.1,16.7-6.2c16.3,6.5,32.5,12.7,48.8,19.4c7.2,2.9,11.2,8.8,8.4,16C397.3,378.2,392.1,381.8,386.8,387L386.8,387z
	 M220.7,387c-5-5-11.5-8.6-12-12.9c-0.7-5,2.4-13.6,6.2-15.5c16.7-8.1,34.2-15.1,51.9-20.6c4.1-1.2,12.7,2.9,15.1,6.9
	c2.2,3.6,0.5,13.9-2.6,15.3C260.8,369.8,241.5,377.7,220.7,387L220.7,387z"/>
</svg>
