<?xml version="1.0" encoding="utf-8"?>
<!-- Generator: Adobe Illustrator 18.1.1, SVG Export Plug-In . SVG Version: 6.00 Build 0)  -->
<svg version="1.1" id="Layer_1" xmlns="http://www.w3.org/2000/svg" xmlns:xlink="http://www.w3.org/1999/xlink" x="0px" y="0px"
	 viewBox="-0.3 191.6 612.3 408.4" enable-background="new -0.3 191.6 612.3 408.4" xml:space="preserve">
<path fill="#FFFFFF" d="M0,415.9c0.4-2.8,0.7-5.7,1.2-8.4c1.7-9.3,5-18.1,10.3-26c7.1-10.7,17.4-16.9,29.3-21
	c10.7-3.7,21.8-5.8,32.9-7.3c11.9-1.6,23.7-2.9,35.5-4.3c13.4-1.5,26.7-2.8,40-4.1c12.5-1.2,25-2.4,37.5-3.3c12.9-1,26-1.9,38.9-2.6
	c19.7-1,39.4-1.8,59.2-2.4c15.9-0.4,31.8-0.3,47.8,0c14,0.3,27.9,1.1,41.9,2c13.5,0.9,26.9,2,40.4,3.2c10.5,1,21,2.1,31.5,3.2
	c12.4,1.3,24.7,2.7,37.1,4.1c11,1.3,22.1,2.6,33.1,3.8c7.5,0.9,15,1.6,22.4,2.6c12.5,1.7,24.9,3.5,36.9,7.6
	c11.1,3.7,20.5,9.8,26.7,20.2c4.8,8,7.8,16.7,9.3,25.9c0.1,0.4,0.2,0.7,0.3,1.2v20.5l-0.3,1c-0.7,3-1.3,6.1-2.2,9.1
	c-4.4,13.8-12.7,24.4-25.7,31c-8.5,4.3-17.7,5.8-27.2,5.8H58.1c-3.8,0-7.7-0.1-11.4-0.5c-9.8-1.1-18.9-4.5-26.7-10.8
	c-10.4-8.4-16.1-19.7-18.7-32.7c-0.5-2.8-0.9-5.6-1.3-8.3C0,425.3,0,415.9,0,415.9z M68.9,458.5c22.1,0,40.2-18.2,40.1-40.4
	C109,395.9,91,378,68.8,378s-40.4,18.1-40.3,40.2C28.5,440.4,46.6,458.5,68.9,458.5L68.9,458.5z M544.1,458.5
	c22.2,0,40.2-18.2,40.2-40.4c0-22.1-17.9-40.1-40.1-40.2c-22.3,0-40.4,17.9-40.5,40.2C503.7,440.4,521.7,458.5,544.1,458.5
	L544.1,458.5z M612,513.8c-1,1.4-1.7,2.9-2.9,4.1c-1.9,2-4.4,3-7.2,3h-19.5v62.5c0,6.9-3,12.3-9.4,15.2c-2,1-4.5,1.4-6.8,1.4
	c-19.8,0.1-39.5,0.1-59.4,0c-9.2,0-15.9-6.8-15.9-16v-61v-1.9H121.4v62.4c0,6.9-3,12.3-9.3,15.2c-2,1-4.5,1.4-6.8,1.4
	c-19.8,0.1-39.5,0.1-59.4,0c-9.4,0-16.1-6.9-16.1-16.5V523v-2.1H10.4c-5.7,0-10.3-4.2-10.5-9.8c-0.2-4.9-0.2-9.9,0-14.8
	c0.2-5.2,4.5-9.2,9.7-9.3h590.7c2.8,0,5.6,0.1,7.7,2c1.5,1.3,2.5,3.1,3.7,4.7C612,500.3,612,507,612,513.8L612,513.8z"/>
<path fill="#FFFFFF" d="M340,191.6c1.7,0.1,3.4,0.2,5.1,0.2c21.7,0.6,43.4,1.1,64.9,2c16.2,0.7,32.5,2,48.7,3.2
	c7.3,0.5,14.4,1.1,21.6,2.1c17.8,2.6,31.4,12,41.1,27.1c4.4,6.8,7.2,14.5,10.1,22c12.7,32.4,25.4,64.8,38.1,97.2
	c0.2,0.4,0.3,1,0.6,1.6c-3.2-0.2-6.3-0.3-9.4-0.5c-7.4-0.5-14.7-1.1-22.1-1.4c-1.8-0.1-2.7-0.6-3.4-2.5
	c-11.9-30.2-23.6-60.5-35.7-90.7c-4.3-10.7-12.4-16.9-23.7-18.2c-15.8-1.8-31.7-3.6-47.6-4.8c-18.7-1.5-37.4-2.6-56.2-3.5
	c-30.8-1.6-61.4-1.9-92.2-1.4c-20.6,0.4-41.2,1.2-61.7,2.2c-15.6,0.7-31.2,2.1-46.8,3.4c-10.5,1-20.9,2.4-31.4,3.5
	c-4.6,0.5-9.1,1.2-13.2,3.3c-6.6,3.5-11.5,8.5-14.3,15.7c-12,30.4-23.9,60.8-35.8,91.2c-0.4,1.1-1,1.5-2,1.6
	c-10.7,0.6-21.3,1.4-31.9,2c-0.1,0-0.3-0.1-0.5-0.1c1.5-4,3.1-7.8,4.6-11.6c12.6-32.3,25.2-64.5,37.9-96.7c4.5-11.2,11-21,20.6-28.5
	c8.3-6.5,17.8-10.4,28.3-11.2c15.8-1.4,31.6-2.5,47.4-3.4c34.9-2.1,69.9-3.3,104.9-3.7c0.7,0,1.5-0.1,2.2-0.2
	C305.5,191.6,322.7,191.6,340,191.6z"/>
<path fill="none" d="M68.9,458.5c-22.2,0-40.4-18.1-40.4-40.3c0-22.1,18.1-40.2,40.3-40.2s40.2,17.9,40.2,40.2
	C109,440.4,91,458.4,68.9,458.5L68.9,458.5z M544.1,458.5c-22.2,0-40.4-18.2-40.4-40.4c0-22.2,18.2-40.2,40.5-40.2
	c22.1,0,40.1,17.9,40.1,40.2S566.2,458.5,544.1,458.5L544.1,458.5z"/>
</svg>
