<?xml version="1.0" encoding="utf-8"?>
<!-- Generator: Adobe Illustrator 18.1.1, SVG Export Plug-In . SVG Version: 6.00 Build 0)  -->
<svg version="1.1" id="Layer_1" xmlns="http://www.w3.org/2000/svg" xmlns:xlink="http://www.w3.org/1999/xlink" x="0px" y="0px"
	 viewBox="19.2 96.1 573.6 599.8" enable-background="new 19.2 96.1 573.6 599.8" xml:space="preserve">
<path fill="#FFFFFF" d="M222.4,96.8c-10.6,2.6-20.2,10.6-25.2,20.6l-2.9,5.9v169.9l3.2,6.1c4,7.4,9.8,13.6,16.2,16.8
	c2.6,1.3,4.7,2.9,4.7,3.5c0,0.8,31.3,1.2,87.9,1.2s87.9-0.3,87.9-1.2c0-0.6,2.1-2.2,4.7-3.5c6.3-3.2,12.2-9.4,16.2-16.8l3.2-6.1
	v-170l-2.9-5.9c-3.6-7.5-10.7-14.5-18.2-18.2l-5.9-2.9l-82.6-0.2C263.1,96.1,224.4,96.4,222.4,96.8L222.4,96.8z M365,149.6
	c5.5,5.6,4.3,15.2-2.5,19.2c-2.9,1.8-8.9,2-56.1,2c-38.4,0-53.6-0.3-55.8-1.4c-7-3.2-8.7-14.1-3-19.8l3.4-3.4h110.6L365,149.6
	L365,149.6z M365,199.8c4,4.5,4.6,10.9,1.5,15.4c-4.1,5.7-6.1,6-60.2,6s-56.1-0.2-60.2-6c-4.1-5.9-1.1-15.9,5.6-18.6
	c1.3-0.6,26.6-0.9,56.1-0.8l53.8,0.2C361.6,196,365,199.8,365,199.8z M361.9,247.2c7,3.2,8.7,14.1,3,19.8l-3.4,3.4H250.9l-3.4-3.4
	c-5.5-5.6-4.2-15.8,2.6-19.6C254,245.3,357.3,245.1,361.9,247.2L361.9,247.2z M43.9,173c-7.7,2.7-13.7,7.4-18.6,14.7
	c-5,7.4-6.6,13.6-6,23.6c0.9,13.6,8.3,24.7,20.6,30.7l6.7,3.3l61.3,0.3l61.2,0.3v-75.1h-59.4C55.1,170.9,49.7,171,43.9,173z
	 M443.4,208.3v37.6l61.3-0.3l61.2-0.3l6.7-3.3c7.3-3.5,13.5-9.7,17.6-17.5c2.2-4.2,2.7-6.8,2.7-16.2c0-9.4-0.5-12-2.7-16.2
	c-4.1-7.7-10.3-13.9-17.6-17.5l-6.7-3.3l-61.2-0.3l-61.3-0.4L443.4,208.3L443.4,208.3z M218.8,347.2c-0.5,1.1-0.5,12.2-0.2,25
	c0.6,25,1.9,30.9,9.4,43.8c7,11.8,24.8,25.2,36.8,27.4c2.2,0.3,4,1.2,4,1.8c0,0.6,16.4,1.1,37.5,1.1c21.1,0,37.5-0.5,37.5-1.1
	c0-0.6,1.8-1.4,4-1.8c13-2.5,30.9-16.5,38-29.8c6.8-12.8,7.7-18.4,7.9-44.2V346l-87.1-0.3C229.2,345.4,219.4,345.7,218.8,347.2
	L218.8,347.2z M268.7,553.5v82.6l14.1,28.1c14.5,29.1,16.4,31.6,23.4,31.6c7,0,8.9-2.6,23.4-31.6l14.1-28.1V470.8h-75V553.5z"/>
</svg>
