<svg xmlns="http://www.w3.org/2000/svg" viewBox="0 202.5 612 386.9"><g fill="#FFF"><path d="M610.5 288.4c-1.5-4.6-4-8.7-7.8-11.8-9.8-7.8-24.2-5.5-31.1 5l-47.4 72.3-176.4-18.5-92 75.3 7.3 20c.1.3.2.6.2.9l2.1 154.8c0 1.7 1.4 3 3 3h20.1c1.6 0 2.8-1.2 3-2.8l7.4-93.6c.3-3.6 5.5-3.8 6-.2l13.4 94c.2 1.5 1.4 2.6 3 2.6h17.5c1.6 0 2.9-1.2 3-2.8l6.9-113.1c.1-1.6 1.6-2.9 3.2-2.8l103.7 4.6c1.6.1 2.8 1.2 2.9 2.7l9.2 108.7c.1 1.6 1.4 2.7 3 2.7h20.5c1.6 0 2.9-1.2 3.1-2.8l6.4-91.2c.3-3.5 5.2-3.9 6-.5l21.2 92.1c.3 1.4 1.6 2.3 3 2.3h23.7c1.7 0 3.1-1.4 3.1-3L556 380.2l48.8-62c6.6-8.4 9.1-19.7 5.7-29.8zM327.2 326l.1-.1-48-54.3c-.7-.8-.9-1.8-.6-2.8 2.1-7.5 10-41.4-9.2-60.7-.7-.7-1.3-1.4-2-2-.1-.1-.2-.1-.3-.2-1.3-1.1-2.8-2.2-4.4-3.2-.1 0-.1-.1-.1-.1l-24.5 53.9c-.5 1.1-1.7 1.8-2.9 1.8-8.5-.5-41.6 0-53.4 39.2-.3 1-1.2 1.8-2.2 2.1-22.9 4.9-44.2 9.6-52.6 11.5-1.9.4-3 2.6-2 4.3 8.5 16.3 27.1 35.1 56.6 41.9 20.6 4.8 45.8 3.5 53.4 2.9 1.4-.1 2.5.7 3 2l10.3 28.4 76-62.2 2.8-2.4zm-107.4-39.1c5.7 0 10.4 4.6 10.4 10.4 0 5.7-4.7 10.3-10.4 10.3-5.8 0-10.4-4.6-10.4-10.3 0-5.8 4.6-10.4 10.4-10.4zM45.4 306.9c.8-2.9-.9-6-3.8-7l-32.8-11c-3.2-1.1-6.6.8-7.4 4l-1.1 4.3c-.9 3.2 1.2 6.5 4.5 7.2l34 6.7c2.8.6 5.8-1.3 6.6-4.2zM45.9 365.3l-31 15.4c-3 1.5-4.1 5.2-2.4 8.1l2.3 3.9c1.7 2.9 5.5 3.8 8.2 1.9l28.7-19.3c2.5-1.7 3.3-5.1 1.8-7.7-1.5-2.7-4.8-3.7-7.6-2.3zM69.3 219.6c-1.5-3-5.2-4.1-8.1-2.4l-3.9 2.2c-2.9 1.7-3.8 5.5-1.9 8.2l19.3 28.7c1.7 2.5 5.1 3.3 7.7 1.8 2.6-1.5 3.6-4.9 2.3-7.6l-15.4-30.9z"/></g></svg>