<svg xmlns="http://www.w3.org/2000/svg" viewBox="0 0 180 108.1"><path fill="#FFF" d="M.6 73.4C7 60.9 8.8 59.6 21.7 58.6c.1 1.4.2 2.9.3 4.3.5 5.3 3.5 8.6 8.8 8.1 4.8-.5 8.1 1.6 11.8 3.9 2.2 1.3 5.2 1.5 7.8 1.7 1.9.2 3.9-.9 5.9-.8 16.9.5 27.2-10.7 38-21 3.4-3.2 6.9-4.5 11.5-4.9 18.2-1.6 36.4-3.7 54.7-5.4 4.8-.4 9.6-.1 14.4.3 3.4.3 5.4 2.4 5 6.1-.1 1.3-.2 2.7 0 4 .7 5.5-1.6 8.6-7 10.3-25.2 8.1-50.2 16.8-75.4 24.6-20.3 6.3-40.9 11.7-61.5 17.4-3 .8-6.2.8-9.3.8-3.7 0-6.2-1.5-4.7-5.5 20.9-2.4 40.5-9 60.3-15 18.8-5.7 37.5-11.7 56.2-17.6 1.2-.4 2.3-.9 3.3-1.8-10.2 2-20.4 4.7-30.7 5.8-24 2.6-48 4.7-72.1 6.6-5.1.4-8.8 1.7-11.7 5.9-1.3 1.9-2.9 3.5-4.7 5.5C17.1 83 9.9 76.8.6 73.4zM149 52.1c3.9 3.2 8 3 12 1.6.8-.3 1.6-3.3 1.1-3.8-3-3.1-10.2-1.9-13.1 2.2zM124 58c3.2 3.2 9 4.2 12.3 2.3 2.4-1.4 2.6-2.8.1-4.3-3.2-2-9.1-1.1-12.4 2z"/><path fill="#FFF" d="M116.4 20.8C97.6 38 79.2 54.8 60.7 71.6c-3.7 3.3-14.2 3.6-17.9.3 3.1-.6 5.8-1.5 8.5-1.7 6.2-.6 9.3-4.7 11.6-9.7 1.9-4.1-.2-7.8-4.7-7.4-3.4.3-6.7 2.3-10.1 3.5-1.9.7-3.8 1.4-6 1 11.3-7.9 22.7-15.7 34-23.6 8.2-5.7 16.5-11.3 24.5-17.3 3-2.2 5.3-2.7 8.3-.4 2.2 1.6 4.8 2.9 7.5 4.5zM143.6 8.8c-1.3 2-2.2 4.8-4 6C116.8 30 97.3 49.2 76.6 67c-2.7 2.3-6.4 3.4-10.2 4.2C90.5 48.6 112.8 24 143.6 8.8zM24.7 61c0-5.7 1.4-7 7.5-7 5.8 0 7.3 1.5 7.3 6.8 0 6-2 8.2-7.4 8.3-5.6 0-7.4-1.9-7.4-8.1z"/><path fill="#FFF" d="M40.4 69.1c.8-2.8 1.4-5.3 1.8-6.7 3.1-1.7 5.5-3.4 8.1-4.4 2.9-1.1 6.1-1.7 9.2-2.3.3 0 1.5 2.3 1.2 2.6-2.2 2.9-4.3 6.5-7.3 8-3.8 1.9-8.5 2-13 2.8zM27.3 91.8c4.7-7.6 7.8-8.8 19.5-6.5-.9 2.5-1 5.8-2.6 7.2-3.6 2.9-12.6 2.1-16.9-.7zM0 87.2v-4.7c9 .5 20.9 13.4 20.3 23C14.2 98.2 9.7 90 0 87.2zM124.5 16.3c-5.3 3.5-8.3 2.7-16.3-4.3 4.3-4.2 6.7-3.6 16.3 4.3zM115.9 7.3c6.9-4.7 10.3 2.8 15.6 3.8-3.9 4.4-5.1 4.1-15.6-3.8zM137.5 7.5c-5.7 4.2-8.5-2.2-13.8-3.2 6.7-4.4 9.8 1.1 13.8 3.2zM141.3 5.7c-3.2-1.9-5.3-3.1-7.3-4.4.1-.5.1-.9.2-1.4 2.6.2 5.2.5 7.9.7-.3 1.5-.5 2.9-.8 5.1z"/><path fill="none" d="M149 52.1c2.8-4.1 10.1-5.3 13-2.2.5.5-.3 3.5-1.1 3.8-3.9 1.5-8 1.6-11.9-1.6zM124 58c3.4-3.1 9.2-4 12.5-2.1 2.5 1.5 2.3 2.9-.1 4.3-3.5 2-9.2 1-12.4-2.2z"/></svg>