<?xml version="1.0" encoding="utf-8"?>
<!-- Generator: Adobe Illustrator 18.1.1, SVG Export Plug-In . SVG Version: 6.00 Build 0)  -->
<svg version="1.1" id="Layer_1" xmlns="http://www.w3.org/2000/svg" xmlns:xlink="http://www.w3.org/1999/xlink" x="0px" y="0px"
	 viewBox="28.8 282.6 560.3 242.7" enable-background="new 28.8 282.6 560.3 242.7" xml:space="preserve">
<path fill="#FFFFFF" d="M154.5,400.9c8.6-26,16.5-51.1,24.8-75.9c11-33.7,11-33.7,47.1-33.7h150.9v109.5L154.5,400.9L154.5,400.9z
	 M520.5,489.6c-2.8-22.3-11.9-37.9-32.4-44.1c-24.2-7-47.4,7.3-53.9,32.1c-1.2,4.3-3.7,8.3-5.8,12.2c-1.5-0.3-3.1-0.9-4.3-1.2V291.7
	c30,0,60.6-1.2,90.6,0.9c7.3,0.6,16.5,10.4,20.5,18.4c15.6,30.3,30.6,60.9,43.1,92.7c4.9,12.5,2.1,27.8,3.7,41.9
	c0.6,5.8,4.3,11.3,5.5,17.1c1.2,7.3,2.4,15,0.9,22c-0.6,2.4-9.2,4.3-14.1,4.6C556.3,489.9,539.2,489.6,520.5,489.6z M566.7,400
	c-14.4-30.3-28.5-60-42.8-89.7c-1.2-2.4-4.3-5.2-6.7-5.2c-24.2-0.3-48.7-0.3-72.8-0.3v59.7c9.5,0,18.1,0.9,26.3-0.3
	c19-2.8,33.7,3.4,44.7,19C527.5,400.6,544.1,406.7,566.7,400L566.7,400z M560.6,453.2c18.7,4,12.5-9.8,13.2-17.4
	c0.6-8.3,2.4-19-13.2-14.1V453.2L560.6,453.2z M74.4,301.4h64c-19,57.2-37.3,113.2-56,170.7c-16.2-3.7-31.5-6.7-46.5-10.7
	c-3.1-0.9-6.4-6.1-6.7-9.5c-0.6-5.8,0-12.2,1.8-18.1C45,389.9,59.7,346.1,74.4,301.4L74.4,301.4z M377.6,440.7H142
	c2.8-8.9,4.9-17.7,8.3-26c1.2-2.8,5.5-6.1,8.6-6.1c72.2,0,144.7,0.3,217,0.6c0.3,0,0.6,0.6,1.8,1.5V440.7z M90.3,470.1
	c11.6-35.5,23-69.8,34-104c6.4-19.9,12.9-39.5,19.6-59.4c7.7-23.6,14.4-27.2,41-22c-1.5,5.8-3.1,11.6-4.9,17.4
	c-15.9,48.3-31.8,96.4-47.7,144.7C123,474.6,123,474.6,90.3,470.1L90.3,470.1z M246.6,488.4c-6.4-13.8-12.2-26-18.1-38.9h148.7v38.9
	H246.6z M411,443.4h-24.2V321H411V443.4z"/>
<path fill="#FFFFFF" d="M514.1,490.2c-1.2,20.8-18.7,36.1-40.1,34.9c-20.5-1.2-35.2-18.1-34.3-38.9c0.9-21.1,18.4-36.4,39.8-35.2
	C499.4,452.3,515,470.1,514.1,490.2z M496,488.1c-1.2-11.3-7-18.7-19.3-18.7c-12.2,0-19,7.3-19,19c0,11.6,7,19,19,19
	C488.7,507.1,494.8,500,496,488.1z M194,451.1c20.5,0.3,36.7,16.5,36.7,37c0,20.8-15.9,36.7-36.7,37c-21.4,0-38.2-16.8-37.6-37.6
	C156.7,467,173.5,450.8,194,451.1L194,451.1z M213,487.8c-1.8-11.3-7.7-19-19.9-18.4c-11.9,0.3-18.7,7.6-18.7,19.3
	c0.3,11.9,7.6,18.7,19.6,18.4C206.2,507.1,211.8,499.1,213,487.8z M410.7,488.7h-23.9v-38.9h23.9V488.7z M140.5,487.5
	c-15.3-7.3-5.5-19-2.8-29.7c3.7-13.2,13.5-8.3,21.1-8.6C152.7,462.1,146.9,474.6,140.5,487.5z"/>
<path fill="none" d="M566.7,400c-22.6,6.7-38.9,0.6-51.1-16.5c-11-15.3-25.7-21.7-44.7-19c-8.3,1.2-17.1,0.3-26.3,0.3v-59.7
	c24.5,0,48.7,0,72.8,0.3c2.1,0,5.5,2.8,6.7,5.2C538.3,340,552.3,370,566.7,400L566.7,400z M560.6,453.2V422
	c15.6-4.9,13.8,5.8,13.2,14.1C573.1,443.7,579.3,457.5,560.6,453.2z M496,488.1c-1.2,11.9-7.3,19-19.3,19c-11.9,0-19-7.3-19-19
	s7-19,19-19C489,469.1,494.8,476.5,496,488.1z M213,487.8c-1.2,11.6-6.7,19.3-19,19.6c-11.9,0-19.3-6.4-19.6-18.4
	c-0.3-11.9,6.4-19,18.7-19.3C205.3,468.8,211.1,476.2,213,487.8L213,487.8z"/>
</svg>
