<?xml version="1.0" encoding="utf-8"?>
<!-- Generator: Adobe Illustrator 18.1.1, SVG Export Plug-In . SVG Version: 6.00 Build 0)  -->
<svg version="1.1" id="Layer_1" xmlns="http://www.w3.org/2000/svg" xmlns:xlink="http://www.w3.org/1999/xlink" x="0px" y="0px"
	 viewBox="479.6 450 171 441.5" enable-background="new 479.6 450 171 441.5" xml:space="preserve">
<path fill="#FFFFFF" d="M536.7,485.6h57v14.2h-57V485.6z M629.2,756.2H501c-12.1,0-21.4-9.2-21.4-21.4v-28.4
	c0-12.1,9.2-21.4,21.4-21.4h128.2c12.1,0,21.4,9.2,21.4,21.4v28.4C650.6,746.9,641.3,756.2,629.2,756.2z M501,699.2
	c-4.2,0-7.1,2.8-7.1,7.1v28.4c0,4.2,2.8,7.1,7.1,7.1h128.2c4.2,0,7.1-2.8,7.1-7.1v-28.4c0-4.2-2.8-7.1-7.1-7.1H501z"/>
<path fill="#FFFFFF" d="M493.9,628h14.2v64.1h-14.2V628z M622.1,628h14.2v64.1h-14.2V628z M629.2,813.1H501
	c-12.1,0-21.4-9.2-21.4-21.4v-28.4c0-12.1,9.2-21.4,21.4-21.4h128.2c12.1,0,21.4,9.2,21.4,21.4v28.4
	C650.6,803.9,641.3,813.1,629.2,813.1z M501,756.2c-4.2,0-7.1,2.8-7.1,7.1v28.4c0,4.2,2.8,7.1,7.1,7.1h128.2c4.2,0,7.1-2.8,7.1-7.1
	v-28.4c0-4.2-2.8-7.1-7.1-7.1H501L501,756.2z"/>
<path fill="#FFFFFF" d="M607.9,891.5h-85.5c-24.9,0-42.7-17.8-42.7-42.7v-28.4c0-12.1,9.2-21.4,21.4-21.4h128.2
	c12.1,0,21.4,9.2,21.4,21.4v28.4C650.6,873.7,632.7,891.5,607.9,891.5z M501,813.1c-4.2,0-7.1,2.8-7.1,7.1v28.4
	c0,17.1,11.4,28.4,28.4,28.4h85.5c17.1,0,28.4-11.4,28.4-28.4v-28.4c0-4.2-2.8-7.1-7.1-7.1H501z M622.1,635.1H508.2
	c-11.4,0-28.4-10-28.4-28.4v-21.4c0-24.2,16.4-47,32-56.2l17.8-12.1v-52.7c0-7.8,6.4-14.2,14.2-14.2h42.7c7.8,0,14.2,6.4,14.2,14.2
	v53.4l18.5,12.1c15,8.6,31.4,31.4,31.4,55.6v21.4C650.6,625.2,633.5,635.1,622.1,635.1z M543.8,464.2v60.5l-24.2,16.4
	c-12.1,7.1-25.6,25.6-25.6,44.2v21.4c0,10,10,14.2,14.2,14.2h113.9c4.2,0,14.2-4.2,14.2-14.2v-21.4c0-18.5-12.8-37-24.9-43.4
	l-24.9-17.1v-60.5H543.8z"/>
<path fill="#FFFFFF" d="M515.3,585.2h-14.2c0-13.6,6.4-26.4,17.1-34.2c6.4-5,21.4-14.2,21.4-14.2l7.8,12.1c0,0-15,9.2-21.4,14.2
	C519.5,567.4,515.3,576,515.3,585.2z M501,592.4h14.2v14.2H501V592.4z"/>
</svg>
