<svg version="1" xmlns="http://www.w3.org/2000/svg" width="853.333" height="853.333" viewBox="0 0 640.000000 640.000000"><path d="M293.9.4c-.2.2-3.5.6-7.4 1-14.7 1.4-15.5 1.6-32 5.2-41.6 9-81.9 28-120.2 56.5-7.2 5.4-13.7 10.4-14.5 11.1-.7.7-4 3.5-7.3 6.3-10.1 8.5-27.8 25.7-39 38-15.7 17.3-32.6 53.9-37.4 81.2-.6 3.2-1.3 7.4-1.7 9.3-5.4 30.8-2.2 70.1 8.4 105 6.2 20.4 14.8 39.8 31.2 71 2.5 4.7 3.8 8.8 6.6 21.5.3 1.1.7 8.1.9 15.5.4 11.1 1.1 18.6 2 22 .1.3.5 1.8 1 3.5 1.7 6.3 6.9 15 11.9 20.1 6.9 6.8 13.4 10 27.9 13.5 24.8 6.2 46.6 15 61.5 25.1 3.6 2.5 4.2 3.4 4.3 6.6 0 2 .2 4.4.3 5.2.2.8.6 4.2 1 7.5 1.8 17 5.6 33.7 9.3 40.8 1 1.9 1.4 5.7 1.3 11.5-.5 35.4-.7 33 2 35.6 8.2 8 18.5 8.3 28.8 1l2.2-1.6v11.9l6.2 4.4c5.6 3.9 7 4.4 13 4.7 5.4.3 7.6 0 11-1.7 4.7-2.3 9.2-6 10.1-8.2.3-.8.6 0 .6 1.7.2 6.2 10.9 13.3 21.5 14.1 5.4.5 7.2.2 11.7-2 3-1.3 6.9-3.8 8.8-5.4l3.3-2.9 3.1 2.9c5.8 5.4 10.4 7.2 19.2 7.2 7.1 0 8.5-.3 12.5-2.9 6.8-4.3 10-7.7 10-10.5v-2.5l3.3 3.2c8.8 8.5 22 9.6 31.6 2.6 5.8-4.3 6.1-5 6.2-15.3.1-5.5.4-8.5.8-7.1 1.1 3.9 8 8.2 13.7 8.5 5.1.2 8.6-1 14-5l3.1-2.3-.4-19.2c-.3-18.5-.3-19.4 2.1-25.3 2.6-6.5 5.1-15.8 6-21.7.2-1.9.8-5.8 1.2-8.5.3-2.8.8-5.7.9-6.6.2-.9.6-5.2 1-9.5.7-8.4 1.9-10.3 8.5-13.8 1.4-.7 4.7-2.5 7.5-4.1 11.9-6.7 31.2-13.7 52.1-18.8 12.7-3.1 19.3-6.5 26.1-13.3 9.9-9.8 14-22.1 14.7-43.9.5-13.2.7-15.5 2.2-23 1.4-6.5 4.5-14.8 7.7-20.3 19.2-32.9 33.5-73.4 37.7-106.2 3.6-28.3 2.9-46.5-2.7-77.5-3.3-18.3-16-48.8-28-66.7-4.2-6.4-34.6-38.2-45.3-47.4-28.8-24.7-64.3-47.5-92-58.8-3.6-1.5-7.4-3.1-8.5-3.6-11.3-5.3-43.3-14.2-58.7-16.5-3.9-.5-7.3-1-14.3-2.1-4.5-.7-61.9-1.6-62.6-1z"/></svg>