<svg xmlns="http://www.w3.org/2000/svg" viewBox="0 0 343.4 378.3"><path fill="#FFF" d="M343.4 177.1v24.1c-.1.6-.3 1.2-.3 1.8-.5 4.7-.8 9.5-1.5 14.2-2.5 16.8-7 33-14.1 48.5-21.6 47.3-56.5 80.7-104.8 99.9-17.3 6.9-35.3 10.8-53.9 12.1-2.7.2-5.3.4-8 .7h-12c-2.7-.2-5.3-.5-8-.7-13.9-.9-27.5-3.5-40.7-7.5-35.7-11-65.5-30.8-89.7-59.1-2.1-2.4-4-4.9-6-7.5.4-.2.5-.3.7-.3 6-1.1 11.9-2.1 17.9-3.2 2.4-.4 2.4-.4 2.4-2.9-.3-30.1.5-60.3-1.7-90.4-.6-8.4-1.1-16.8-1.6-25.2-.2-3.6 0-7.3 0-10.9 1.2-.3 1.7 0 1.9 1.3.5 3 1.2 6.1 1.8 9.1 4.2 21.1 8.4 42.3 12.6 63.4 3.3 16.5 6.6 33.1 9.8 49.6.2 1.3.7 1.5 1.9 1.3 9.5-1.7 19-3.4 28.6-5 4.8-.8 4.7-.8 5.6-5.6 2.7-15.4 5.4-30.9 8.1-46.3l8.1-46.5c1-6 2.1-12 3.2-18.1h2.5c-.8 18.8-2 37.3-2.4 55.9-.4 18.6-.1 37.3-.1 56 11.7-2 23.3-4.1 35-6.1v-1.6-171.3c0-1.4-.4-1.8-1.8-2-15.6-2.7-31.1-5.4-46.7-8.1-2.2-.4-4.3-.7-6.6-1.1-5.1 35.4-10.2 70.5-15.3 105.7-2.2-13.7-4.1-27.4-6-41.1-1.6-11.3-3.1-22.6-4.6-33.9-1.6-11.5-3.2-23-4.7-34.5-.2-1.3-.7-1.8-1.8-2-13.4-2.3-26.8-4.6-40.2-7-3.5-.6-7-1.2-10.8-1.9.4-.6.6-1 .8-1.3 10.6-15 23.2-28.1 37.6-39.4 20.2-15.8 42.7-27 67.4-33.7 11.3-3 22.8-5 34.5-5.8 2.7-.2 5.3-.5 8-.7h12.4c.7.1 1.3.3 2 .3 12 .4 23.8 2.1 35.5 4.9 58.7 13.9 108 55.7 130.9 111.3 6.8 16.5 11.3 33.7 13.2 51.5.1 3 .5 6.1.9 9.1zm-115.8-18.4c.1-.5.2-.7.2-1v-35.9c0-1.1-.6-1.3-1.4-1.5-6.5-1.1-13.1-2.3-19.6-3.4-17.7-3.1-35.4-6.1-53.1-9.2-2.1-.4-4.1-.7-6.4-1V149.4c0 2.5 0 2.4 2.4 2.6 5.9.5 11.8 1 17.6 1.5 2.2.2 4.4.5 6.8.7v119.2c10.3-1.8 20.3-3.6 30.3-5.2 2-.3 2.4-1.1 2.4-3V159.7v-2.6c7.1.5 13.9 1.1 20.8 1.6zm17.1-34.9c-8 47.2-15.9 94.3-23.9 141.4h1c7.4-1.3 14.8-2.7 22.3-3.9 1.7-.3 2.2-1 2.4-2.6.5-4.6 1.2-9.2 1.7-13.8.2-1.3.5-2.1 2.1-2 1.3 0 2.6-.3 3.9-.5 3.6-.5 7.2-.9 11-1.4.7 5.4 1.5 10.7 2.2 16 .5 0 .9.1 1.3 0 5.6-1 11.3-2 16.9-2.9 1.7-.3 1.8-.9 1.6-2.4-.9-5.6-1.7-11.2-2.6-16.8-1.7-11.1-3.4-22.2-5-33.3-1.8-11.7-3.5-23.4-5.3-35.1-1.8-11.8-3.5-23.5-5.3-35.3-.5-3.2-.6-3.2-3.7-3.8-6.8-1.2-13.6-2.4-20.6-3.6z"/><path fill="#FFF" d="M261.8 212.1c-3.2.2-6.2.4-9.5.5 1.3-14 2.5-27.7 3.7-41.4 2-.6 2.2-.5 2.3 1.3.9 9.9 1.8 19.8 2.6 29.7.4 3.3.6 6.4.9 9.9z"/></svg>