<?xml version="1.0" encoding="utf-8"?>
<!-- Generator: Adobe Illustrator 18.1.1, SVG Export Plug-In . SVG Version: 6.00 Build 0)  -->
<svg version="1.1" id="Layer_1" xmlns="http://www.w3.org/2000/svg" xmlns:xlink="http://www.w3.org/1999/xlink" x="0px" y="0px"
	 viewBox="5.5 211.6 602.8 376.3" enable-background="new 5.5 211.6 602.8 376.3" xml:space="preserve">
<path fill="#FFFFFF" d="M178.4,516c-11.3-12.2-21.1-23.9-31.8-34.6c-30-29.7-60.9-58.8-90.6-89c-22.3-22.9-24.5-59.7-4-84.1
	c63.3-75.3,144.4-108,242-93c57.8,8.9,94.2,55.7,94.2,114.4c0,71.9,0.3,143.8,0,215.7c0,30-25.7,48-49.9,35.8
	c-15-7.7-19.6-20.8-19.6-36.7c0.3-63.6,0-127.6,0-191.2v-18.1c-45-4-86.6,1.2-126.1,25.1c31.5,50.5,62.4,100.1,93,149.9
	c4.9,8.3,9.8,16.8,12.5,26c8,26.9-8.3,50.5-36.1,50.8c-73.4,0.6-146.9,0.6-220.3,0c-22-0.3-36.1-15-36.4-35.2
	c0-20.8,14.7-35.5,37.3-35.8c39.8-0.6,79.6-0.3,119.3-0.3C167.4,516,172.9,516,178.4,516L178.4,516z M525.7,311.2
	c-0.6,32.7-28.2,60-60.9,60c-33.4,0-61.5-28.8-60.3-61.8c1.2-33,29.1-60,61.5-59.4C499.1,251,526,278.5,525.7,311.2L525.7,311.2z
	 M608.3,523c-9.2,6.1-14.7,12.5-19.6,12.2c-4.3-0.3-11.6-8-11.6-12.2s7-12.2,11.3-12.2C593.3,510.8,598.8,516.9,608.3,523z
	 M536.1,538.3c-8.6,6.1-14.1,13.2-17.7,12.2c-5.2-1.2-11.6-7.6-12.5-12.9c-0.6-3.4,7.3-11.6,11.6-11.6
	C522.3,525.7,527.5,532.2,536.1,538.3z M473.1,400.9c-8.3,6.7-13.5,13.8-17.4,13.2c-5.2-0.6-9.8-7-14.7-11c4-4.3,7.6-11.9,11.9-12.5
	C458.1,389.9,463.6,395.7,473.1,400.9L473.1,400.9z M453.8,461.5c6.1,7.6,13.2,12.9,12.5,16.8c-0.9,5.2-7.6,9.5-11.9,14.4
	c-4.6-4.6-11.6-8.6-12.5-13.8C441.3,474.9,448,469.7,453.8,461.5L453.8,461.5z M544.7,575.6c-7.7,6.1-12.9,13.2-16.8,12.2
	c-5.2-0.9-9.2-7.7-13.8-11.9c4.6-4.3,8.6-11.3,13.5-12.2C531.5,562.8,536.7,569.5,544.7,575.6z M453.8,536.8
	c-6.1-8.6-12.9-14.4-11.9-18.1c1.2-5.2,8-11.3,13.2-12.2c3.4-0.6,11.6,7.3,11.6,11.6C466.7,523.3,460.2,528.2,453.8,536.8
	L453.8,536.8z M587.8,489.9c-8.6,6.1-14.1,12.9-18.1,12.2c-5.2-1.2-11.3-7.6-12.5-12.9c-0.6-3.1,7.3-11.3,11.3-11.6
	C573.8,477.7,579,483.8,587.8,489.9z M549,438.5c6.4,8,13.8,13.5,12.9,17.1c-0.9,5.2-8,9.2-12.5,13.8c-4.3-4.3-11.3-8.3-11.9-12.9
	C537,452.3,543.1,447.1,549,438.5z M472.8,441.3c-8.9,5.8-14.1,11.9-19.3,11.6c-4.3-0.3-8.3-7.6-12.5-11.9
	c4.6-4.3,8.9-11.3,14.1-12.2C459,428.1,464.5,435.2,472.8,441.3z M489.9,407.3c5.8,7.6,12.9,12.9,12.2,17.1
	c-0.9,5.2-7.6,9.5-11.9,14.1c-4.3-4.6-11.3-8.9-11.9-13.8C477.4,420.5,484.1,415.3,489.9,407.3L489.9,407.3z M525.1,393.2
	c-5.2,3.1-10.7,9.2-15.6,8.9c-4.3-0.3-11.3-7.6-11.3-11.9c0-4.3,7.3-11.6,11.6-11.6c5.2-0.3,10.4,5.8,15.6,9.2
	C525.1,389.3,525.1,391.4,525.1,393.2z M517.4,464.2c-8.9,5.5-14.7,11.9-18.4,10.7c-5.2-1.5-8.6-8.6-12.5-13.5
	c4.6-3.7,9.2-10.4,13.8-10.4S509.5,457.5,517.4,464.2z M508.3,518.7c-5.8-8.6-12.5-14.1-11.6-17.7c1.2-5.2,8.3-8.9,12.9-13.2
	c4,4.6,10.7,8.6,11,13.5C520.8,505.5,514.4,510.4,508.3,518.7L508.3,518.7z M530,405.2c5.8,8.6,12.2,13.5,11.9,18.1
	c-0.6,4.6-7.3,8.9-11.3,13.2c-4.6-4.3-11.6-8.3-12.5-13.5C517.1,418.9,523.9,413.4,530,405.2L530,405.2z"/>
</svg>
